<mxfile host="65bd71144e">
    <diagram id="-ZVOEUeyjEKRFmto0EiZ" name="Page-1">
        <mxGraphModel dx="1650" dy="1802" grid="1" gridSize="10" guides="1" tooltips="1" connect="1" arrows="1" fold="1" page="1" pageScale="1" pageWidth="827" pageHeight="1169" math="0" shadow="0">
            <root>
                <mxCell id="0"/>
                <mxCell id="1" parent="0"/>
                <mxCell id="8" value="" style="edgeStyle=none;html=1;" edge="1" parent="1" source="5" target="7">
                    <mxGeometry relative="1" as="geometry"/>
                </mxCell>
                <mxCell id="5" value="1" style="ellipse;whiteSpace=wrap;html=1;" vertex="1" parent="1">
                    <mxGeometry x="160" y="-664" width="80" height="80" as="geometry"/>
                </mxCell>
                <mxCell id="11" value="" style="edgeStyle=none;html=1;" edge="1" parent="1" source="7" target="9">
                    <mxGeometry relative="1" as="geometry"/>
                </mxCell>
                <mxCell id="7" value="2" style="ellipse;whiteSpace=wrap;html=1;" vertex="1" parent="1">
                    <mxGeometry x="280" y="-664" width="80" height="80" as="geometry"/>
                </mxCell>
                <mxCell id="12" value="" style="edgeStyle=none;html=1;" edge="1" parent="1" source="9" target="10">
                    <mxGeometry relative="1" as="geometry"/>
                </mxCell>
                <mxCell id="9" value="3" style="ellipse;whiteSpace=wrap;html=1;" vertex="1" parent="1">
                    <mxGeometry x="390" y="-664" width="80" height="80" as="geometry"/>
                </mxCell>
                <mxCell id="10" value="4" style="ellipse;whiteSpace=wrap;html=1;" vertex="1" parent="1">
                    <mxGeometry x="510" y="-664" width="80" height="80" as="geometry"/>
                </mxCell>
                <mxCell id="13" value="" style="edgeStyle=none;html=1;" edge="1" source="14" target="16" parent="1">
                    <mxGeometry relative="1" as="geometry"/>
                </mxCell>
                <mxCell id="14" value="1" style="ellipse;whiteSpace=wrap;html=1;" vertex="1" parent="1">
                    <mxGeometry x="160" y="-520" width="80" height="80" as="geometry"/>
                </mxCell>
                <mxCell id="15" value="" style="edgeStyle=none;html=1;" edge="1" source="16" target="18" parent="1">
                    <mxGeometry relative="1" as="geometry"/>
                </mxCell>
                <mxCell id="16" value="2" style="ellipse;whiteSpace=wrap;html=1;" vertex="1" parent="1">
                    <mxGeometry x="280" y="-520" width="80" height="80" as="geometry"/>
                </mxCell>
                <mxCell id="17" value="" style="edgeStyle=none;html=1;" edge="1" source="18" target="19" parent="1">
                    <mxGeometry relative="1" as="geometry"/>
                </mxCell>
                <mxCell id="18" value="3" style="ellipse;whiteSpace=wrap;html=1;" vertex="1" parent="1">
                    <mxGeometry x="390" y="-520" width="80" height="80" as="geometry"/>
                </mxCell>
                <mxCell id="19" value="4" style="ellipse;whiteSpace=wrap;html=1;" vertex="1" parent="1">
                    <mxGeometry x="510" y="-520" width="80" height="80" as="geometry"/>
                </mxCell>
                <mxCell id="23" style="edgeStyle=none;html=1;exitX=1;exitY=0.5;exitDx=0;exitDy=0;entryX=0;entryY=0.5;entryDx=0;entryDy=0;" edge="1" parent="1" source="20" target="14">
                    <mxGeometry relative="1" as="geometry"/>
                </mxCell>
                <mxCell id="20" value="dummy" style="ellipse;whiteSpace=wrap;html=1;fillColor=#d5e8d4;strokeColor=#82b366;" vertex="1" parent="1">
                    <mxGeometry x="40" y="-520" width="80" height="80" as="geometry"/>
                </mxCell>
                <mxCell id="21" value="" style="shape=flexArrow;endArrow=classic;html=1;entryX=0.263;entryY=0.088;entryDx=0;entryDy=0;entryPerimeter=0;exitX=0.867;exitY=1.1;exitDx=0;exitDy=0;exitPerimeter=0;" edge="1" parent="1" source="22" target="5">
                    <mxGeometry width="50" height="50" relative="1" as="geometry">
                        <mxPoint x="80" y="-710" as="sourcePoint"/>
                        <mxPoint x="150" y="-670" as="targetPoint"/>
                    </mxGeometry>
                </mxCell>
                <mxCell id="22" value="Head" style="text;strokeColor=none;align=center;fillColor=none;html=1;verticalAlign=middle;whiteSpace=wrap;rounded=0;" vertex="1" parent="1">
                    <mxGeometry x="60" y="-750" width="60" height="30" as="geometry"/>
                </mxCell>
                <mxCell id="24" value="" style="shape=flexArrow;endArrow=classic;html=1;entryX=0.263;entryY=0.088;entryDx=0;entryDy=0;entryPerimeter=0;exitX=0.867;exitY=1.1;exitDx=0;exitDy=0;exitPerimeter=0;" edge="1" source="25" parent="1">
                    <mxGeometry width="50" height="50" relative="1" as="geometry">
                        <mxPoint x="90" y="-573.04" as="sourcePoint"/>
                        <mxPoint x="191.03999999999996" y="-520" as="targetPoint"/>
                    </mxGeometry>
                </mxCell>
                <mxCell id="25" value="Head" style="text;strokeColor=none;align=center;fillColor=none;html=1;verticalAlign=middle;whiteSpace=wrap;rounded=0;" vertex="1" parent="1">
                    <mxGeometry x="70" y="-613.04" width="60" height="30" as="geometry"/>
                </mxCell>
                <mxCell id="26" value="previous" style="text;strokeColor=none;align=center;fillColor=none;html=1;verticalAlign=middle;whiteSpace=wrap;rounded=0;" vertex="1" parent="1">
                    <mxGeometry x="-40" y="-613.04" width="60" height="30" as="geometry"/>
                </mxCell>
                <mxCell id="27" value="" style="shape=flexArrow;endArrow=classic;html=1;entryX=0.263;entryY=0.088;entryDx=0;entryDy=0;entryPerimeter=0;exitX=0.867;exitY=1.1;exitDx=0;exitDy=0;exitPerimeter=0;fillColor=#d5e8d4;strokeColor=#82b366;" edge="1" source="26" parent="1">
                    <mxGeometry width="50" height="50" relative="1" as="geometry">
                        <mxPoint x="-20" y="-573.04" as="sourcePoint"/>
                        <mxPoint x="81.03999999999996" y="-520" as="targetPoint"/>
                        <Array as="points">
                            <mxPoint x="48" y="-545"/>
                        </Array>
                    </mxGeometry>
                </mxCell>
                <mxCell id="63" value="" style="group" vertex="1" connectable="0" parent="1">
                    <mxGeometry x="-7" y="-404" width="637.98" height="270" as="geometry"/>
                </mxCell>
                <mxCell id="53" value="" style="group" vertex="1" connectable="0" parent="63">
                    <mxGeometry width="637.98" height="173.03999999999996" as="geometry"/>
                </mxCell>
                <mxCell id="30" value="Head" style="text;strokeColor=none;align=center;fillColor=none;html=1;verticalAlign=middle;whiteSpace=wrap;rounded=0;" vertex="1" parent="53">
                    <mxGeometry x="117.98" width="60" height="30" as="geometry"/>
                </mxCell>
                <mxCell id="50" value="previous" style="text;strokeColor=none;align=center;fillColor=none;html=1;verticalAlign=middle;whiteSpace=wrap;rounded=0;" vertex="1" parent="53">
                    <mxGeometry width="60" height="30" as="geometry"/>
                </mxCell>
                <mxCell id="52" value="" style="group" vertex="1" connectable="0" parent="53">
                    <mxGeometry x="59.999999999999986" y="33" width="577.98" height="140.03999999999996" as="geometry"/>
                </mxCell>
                <mxCell id="28" value="dummy" style="ellipse;whiteSpace=wrap;html=1;" vertex="1" parent="52">
                    <mxGeometry x="27.980000000000018" y="60.039999999999964" width="80" height="80" as="geometry"/>
                </mxCell>
                <mxCell id="29" value="" style="shape=flexArrow;endArrow=classic;html=1;entryX=0.263;entryY=0.088;entryDx=0;entryDy=0;entryPerimeter=0;exitX=0.867;exitY=1.1;exitDx=0;exitDy=0;exitPerimeter=0;" edge="1" parent="52">
                    <mxGeometry width="50" height="50" relative="1" as="geometry">
                        <mxPoint as="sourcePoint"/>
                        <mxPoint x="69.01999999999998" y="60.039999999999964" as="targetPoint"/>
                    </mxGeometry>
                </mxCell>
                <mxCell id="31" value="" style="shape=flexArrow;endArrow=classic;html=1;entryX=0.263;entryY=0.088;entryDx=0;entryDy=0;entryPerimeter=0;exitX=0.867;exitY=1.1;exitDx=0;exitDy=0;exitPerimeter=0;" edge="1" source="30" parent="52">
                    <mxGeometry width="50" height="50" relative="1" as="geometry">
                        <mxPoint x="77.98000000000002" y="7" as="sourcePoint"/>
                        <mxPoint x="179.01999999999998" y="60.039999999999964" as="targetPoint"/>
                    </mxGeometry>
                </mxCell>
                <mxCell id="34" value="2" style="ellipse;whiteSpace=wrap;html=1;" vertex="1" parent="52">
                    <mxGeometry x="267.98" y="60.039999999999964" width="80" height="80" as="geometry"/>
                </mxCell>
                <mxCell id="36" value="3" style="ellipse;whiteSpace=wrap;html=1;" vertex="1" parent="52">
                    <mxGeometry x="377.98" y="60.039999999999964" width="80" height="80" as="geometry"/>
                </mxCell>
                <mxCell id="33" value="" style="edgeStyle=none;html=1;" edge="1" source="34" target="36" parent="52">
                    <mxGeometry relative="1" as="geometry"/>
                </mxCell>
                <mxCell id="37" value="4" style="ellipse;whiteSpace=wrap;html=1;" vertex="1" parent="52">
                    <mxGeometry x="497.98" y="60.039999999999964" width="80" height="80" as="geometry"/>
                </mxCell>
                <mxCell id="35" value="" style="edgeStyle=none;html=1;" edge="1" source="36" target="37" parent="52">
                    <mxGeometry relative="1" as="geometry"/>
                </mxCell>
                <mxCell id="38" value="1" style="ellipse;whiteSpace=wrap;html=1;" vertex="1" parent="52">
                    <mxGeometry x="147.98000000000002" y="60.039999999999964" width="80" height="80" as="geometry"/>
                </mxCell>
                <mxCell id="51" value="" style="edgeStyle=none;html=1;" edge="1" parent="52" source="28" target="38">
                    <mxGeometry relative="1" as="geometry"/>
                </mxCell>
                <mxCell id="32" value="" style="edgeStyle=none;html=1;" edge="1" source="38" target="34" parent="52">
                    <mxGeometry relative="1" as="geometry"/>
                </mxCell>
                <mxCell id="57" value="" style="shape=flexArrow;endArrow=classic;html=1;exitX=0.867;exitY=1.1;exitDx=0;exitDy=0;exitPerimeter=0;fillColor=#d5e8d4;strokeColor=#82b366;" edge="1" parent="63" target="38">
                    <mxGeometry width="50" height="50" relative="1" as="geometry">
                        <mxPoint x="175.48999999999998" y="210.00000000000006" as="sourcePoint"/>
                        <mxPoint x="244.50999999999996" y="270.04" as="targetPoint"/>
                    </mxGeometry>
                </mxCell>
                <mxCell id="60" value="" style="shape=flexArrow;endArrow=classic;html=1;exitX=0.867;exitY=1.1;exitDx=0;exitDy=0;exitPerimeter=0;fillColor=#d5e8d4;strokeColor=#82b366;" edge="1" parent="63">
                    <mxGeometry width="50" height="50" relative="1" as="geometry">
                        <mxPoint x="315.4899999999998" y="213.04" as="sourcePoint"/>
                        <mxPoint x="350" y="173.04" as="targetPoint"/>
                        <Array as="points">
                            <mxPoint x="370" y="213.04"/>
                        </Array>
                    </mxGeometry>
                </mxCell>
                <mxCell id="61" value="first" style="text;strokeColor=none;align=center;fillColor=none;html=1;verticalAlign=middle;whiteSpace=wrap;rounded=0;" vertex="1" parent="63">
                    <mxGeometry x="140" y="220" width="60" height="30" as="geometry"/>
                </mxCell>
                <mxCell id="62" value="second" style="text;strokeColor=none;align=center;fillColor=none;html=1;verticalAlign=middle;whiteSpace=wrap;rounded=0;" vertex="1" parent="63">
                    <mxGeometry x="270" y="240" width="60" height="30" as="geometry"/>
                </mxCell>
                <mxCell id="86" style="edgeStyle=none;html=1;exitX=1;exitY=0.5;exitDx=0;exitDy=0;entryX=1;entryY=0.25;entryDx=0;entryDy=0;" edge="1" parent="63" source="62" target="62">
                    <mxGeometry relative="1" as="geometry"/>
                </mxCell>
                <mxCell id="87" style="edgeStyle=none;html=1;exitX=1;exitY=0.5;exitDx=0;exitDy=0;entryX=1;entryY=0.25;entryDx=0;entryDy=0;" edge="1" parent="63">
                    <mxGeometry relative="1" as="geometry">
                        <mxPoint x="302" y="210" as="sourcePoint"/>
                        <mxPoint x="302" y="202.5" as="targetPoint"/>
                    </mxGeometry>
                </mxCell>
                <mxCell id="64" value="" style="group" vertex="1" connectable="0" parent="1">
                    <mxGeometry x="-20" y="-120" width="637.98" height="270" as="geometry"/>
                </mxCell>
                <mxCell id="65" value="" style="group" vertex="1" connectable="0" parent="64">
                    <mxGeometry width="637.98" height="173.03999999999996" as="geometry"/>
                </mxCell>
                <mxCell id="66" value="Head" style="text;strokeColor=none;align=center;fillColor=none;html=1;verticalAlign=middle;whiteSpace=wrap;rounded=0;" vertex="1" parent="65">
                    <mxGeometry x="117.98" width="60" height="30" as="geometry"/>
                </mxCell>
                <mxCell id="67" value="previous.next = second" style="text;strokeColor=none;align=center;fillColor=none;html=1;verticalAlign=middle;whiteSpace=wrap;rounded=0;" vertex="1" parent="65">
                    <mxGeometry x="230" width="150" height="30" as="geometry"/>
                </mxCell>
                <mxCell id="68" value="" style="group" vertex="1" connectable="0" parent="65">
                    <mxGeometry x="59.999999999999986" y="33" width="577.98" height="140.03999999999996" as="geometry"/>
                </mxCell>
                <mxCell id="69" value="dummy" style="ellipse;whiteSpace=wrap;html=1;" vertex="1" parent="68">
                    <mxGeometry x="27.980000000000018" y="60.039999999999964" width="80" height="80" as="geometry"/>
                </mxCell>
                <mxCell id="71" value="" style="shape=flexArrow;endArrow=classic;html=1;entryX=0.263;entryY=0.088;entryDx=0;entryDy=0;entryPerimeter=0;exitX=0.867;exitY=1.1;exitDx=0;exitDy=0;exitPerimeter=0;" edge="1" parent="68" source="66">
                    <mxGeometry width="50" height="50" relative="1" as="geometry">
                        <mxPoint x="77.98000000000002" y="7" as="sourcePoint"/>
                        <mxPoint x="179.01999999999998" y="60.039999999999964" as="targetPoint"/>
                    </mxGeometry>
                </mxCell>
                <mxCell id="72" value="2" style="ellipse;whiteSpace=wrap;html=1;" vertex="1" parent="68">
                    <mxGeometry x="267.98" y="60.039999999999964" width="80" height="80" as="geometry"/>
                </mxCell>
                <mxCell id="73" value="3" style="ellipse;whiteSpace=wrap;html=1;" vertex="1" parent="68">
                    <mxGeometry x="377.98" y="60.039999999999964" width="80" height="80" as="geometry"/>
                </mxCell>
                <mxCell id="74" value="" style="edgeStyle=none;html=1;entryX=1;entryY=0.5;entryDx=0;entryDy=0;fillColor=#f8cecc;strokeColor=#b85450;strokeWidth=3;" edge="1" parent="68" source="72" target="77">
                    <mxGeometry relative="1" as="geometry"/>
                </mxCell>
                <mxCell id="75" value="4" style="ellipse;whiteSpace=wrap;html=1;" vertex="1" parent="68">
                    <mxGeometry x="497.98" y="60.039999999999964" width="80" height="80" as="geometry"/>
                </mxCell>
                <mxCell id="76" value="" style="edgeStyle=none;html=1;" edge="1" parent="68" source="73" target="75">
                    <mxGeometry relative="1" as="geometry"/>
                </mxCell>
                <mxCell id="77" value="1" style="ellipse;whiteSpace=wrap;html=1;" vertex="1" parent="68">
                    <mxGeometry x="147.98000000000002" y="60.039999999999964" width="80" height="80" as="geometry"/>
                </mxCell>
                <mxCell id="78" value="" style="edgeStyle=none;html=1;" edge="1" parent="68" source="69" target="77">
                    <mxGeometry relative="1" as="geometry"/>
                </mxCell>
                <mxCell id="79" value="" style="edgeStyle=none;html=1;fillColor=#f8cecc;strokeColor=#b85450;strokeWidth=3;fontColor=#B85450;" edge="1" parent="68" source="77">
                    <mxGeometry relative="1" as="geometry">
                        <mxPoint x="410" y="137" as="targetPoint"/>
                        <Array as="points">
                            <mxPoint x="270" y="217"/>
                        </Array>
                    </mxGeometry>
                </mxCell>
                <mxCell id="138" value="" style="shape=flexArrow;endArrow=classic;html=1;entryX=0.263;entryY=0.088;entryDx=0;entryDy=0;entryPerimeter=0;exitX=0.867;exitY=1.1;exitDx=0;exitDy=0;exitPerimeter=0;fillColor=#f8cecc;strokeColor=#b85450;" edge="1" parent="68">
                    <mxGeometry width="50" height="50" relative="1" as="geometry">
                        <mxPoint x="224" y="3" as="sourcePoint"/>
                        <mxPoint x="293.02" y="63.039999999999964" as="targetPoint"/>
                    </mxGeometry>
                </mxCell>
                <mxCell id="143" value="second.next = first" style="text;strokeColor=none;align=center;fillColor=none;html=1;verticalAlign=middle;whiteSpace=wrap;rounded=0;fontColor=#000000;" vertex="1" parent="68">
                    <mxGeometry x="300" y="17" width="120" height="30" as="geometry"/>
                </mxCell>
                <mxCell id="80" value="" style="shape=flexArrow;endArrow=classic;html=1;exitX=0.867;exitY=1.1;exitDx=0;exitDy=0;exitPerimeter=0;" edge="1" parent="64" target="77">
                    <mxGeometry width="50" height="50" relative="1" as="geometry">
                        <mxPoint x="175.48999999999998" y="210.00000000000006" as="sourcePoint"/>
                        <mxPoint x="244.50999999999996" y="270.04" as="targetPoint"/>
                    </mxGeometry>
                </mxCell>
                <mxCell id="81" value="" style="shape=flexArrow;endArrow=classic;html=1;exitX=0.867;exitY=1.1;exitDx=0;exitDy=0;exitPerimeter=0;" edge="1" parent="64">
                    <mxGeometry width="50" height="50" relative="1" as="geometry">
                        <mxPoint x="315.4899999999998" y="213.04" as="sourcePoint"/>
                        <mxPoint x="350" y="173.04" as="targetPoint"/>
                        <Array as="points">
                            <mxPoint x="370" y="213.04"/>
                        </Array>
                    </mxGeometry>
                </mxCell>
                <mxCell id="82" value="first" style="text;strokeColor=none;align=center;fillColor=none;html=1;verticalAlign=middle;whiteSpace=wrap;rounded=0;" vertex="1" parent="64">
                    <mxGeometry x="140" y="220" width="60" height="30" as="geometry"/>
                </mxCell>
                <mxCell id="83" value="second" style="text;strokeColor=none;align=center;fillColor=none;html=1;verticalAlign=middle;whiteSpace=wrap;rounded=0;" vertex="1" parent="64">
                    <mxGeometry x="270" y="240" width="60" height="30" as="geometry"/>
                </mxCell>
                <mxCell id="142" value="first.next = second.next" style="text;strokeColor=none;align=center;fillColor=none;html=1;verticalAlign=middle;whiteSpace=wrap;rounded=0;fontColor=#000000;" vertex="1" parent="1">
                    <mxGeometry x="380" y="90" width="60" height="30" as="geometry"/>
                </mxCell>
            </root>
        </mxGraphModel>
    </diagram>
</mxfile>